<?xml version="1.0" standalone="no"?>
<!DOCTYPE svg PUBLIC "-//W3C//DTD SVG 20010904//EN"
 "http://www.w3.org/TR/2001/REC-SVG-20010904/DTD/svg10.dtd">
<svg version="1.0" xmlns="http://www.w3.org/2000/svg"
 width="500.000000pt" height="500.000000pt" viewBox="0 0 500.000000 500.000000"
 preserveAspectRatio="xMidYMid meet">
<metadata>
Created by potrace 1.16, written by Peter Selinger 2001-2019
</metadata>
<g transform="translate(0.000000,500.000000) scale(0.100000,-0.100000)"
fill="#000000" stroke="none">
<path d="M2820 4885 c0 -2 15 -12 33 -21 80 -41 216 -141 330 -244 320 -287
531 -661 606 -1070 7 -36 18 -85 24 -110 20 -74 15 -533 -6 -650 -23 -124 -44
-205 -71 -280 -10 -25 -21 -56 -25 -70 -28 -87 -116 -252 -193 -364 -98 -143
-281 -319 -425 -411 -35 -22 -63 -43 -63 -48 0 -20 157 8 271 49 223 80 394
197 545 374 72 85 204 323 233 420 7 25 17 54 21 65 16 45 29 94 40 160 6 39
16 94 21 124 5 30 9 132 9 226 0 94 3 175 7 178 3 4 12 -2 20 -12 17 -25 77
-209 93 -286 6 -33 14 -69 16 -80 8 -34 25 -205 30 -310 4 -88 -12 -296 -31
-405 -12 -65 -57 -245 -72 -285 -16 -43 -19 -51 -53 -135 -148 -364 -502 -745
-845 -910 -252 -121 -533 -168 -850 -141 -121 10 -223 29 -270 50 -11 5 -38
15 -60 22 -112 34 -274 140 -383 250 -164 168 -247 349 -259 571 -14 244 98
530 296 758 75 85 80 90 179 166 138 105 271 154 479 173 243 23 411 97 548
242 167 176 240 345 252 584 9 172 -46 351 -158 517 -53 79 -216 242 -289 290
-188 122 -419 203 -687 238 -125 17 -406 7 -543 -18 -321 -61 -616 -214 -858
-447 -255 -244 -416 -516 -542 -911 -6 -17 -10 -38 -10 -47 0 -10 -4 -25 -9
-35 -5 -9 -14 -48 -20 -87 -7 -38 -16 -95 -21 -125 -49 -295 -19 -691 78
-1010 29 -98 105 -278 167 -396 194 -373 519 -716 875 -926 167 -98 427 -212
580 -255 123 -34 332 -75 460 -90 134 -15 406 -3 570 26 30 5 71 13 90 16 179
32 467 138 660 243 372 203 714 538 920 902 23 41 50 89 60 105 9 17 40 84 68
150 94 222 133 365 172 632 13 92 13 439 0 540 -22 169 -32 218 -70 358 -68
253 -245 597 -419 814 -87 108 -276 310 -338 361 -144 118 -206 166 -303 229
-117 76 -302 175 -375 200 -22 8 -58 22 -80 31 -71 31 -182 66 -351 109 -44
12 -74 14 -74 6z m-303 -1094 c82 -30 148 -89 179 -161 29 -64 34 -84 34 -132
0 -51 -16 -125 -32 -142 -4 -6 -8 -17 -8 -26 0 -9 -23 -41 -50 -72 -66 -74
-126 -98 -245 -98 -98 0 -148 18 -215 78 -25 22 -59 64 -75 93 -27 50 -28 60
-27 153 2 55 7 105 12 110 6 6 10 17 10 26 0 27 56 103 95 129 88 59 226 77
322 42z"/>
<path d="M2305 1974 c-130 -49 -245 -216 -245 -358 0 -51 35 -149 71 -203 116
-169 353 -204 520 -77 88 68 128 146 136 270 10 143 -74 287 -206 352 -45 22
-70 27 -145 29 -61 1 -104 -3 -131 -13z"/>
</g>
</svg>
